<svg width="20" height="22" viewBox="0 0 20 22" fill="none" xmlns="http://www.w3.org/2000/svg">
<path d="M6.85833 8.02067L1.3875 4.96025L10 0.166504L18.6125 4.96025L13.1417 8.02067C12.7264 7.58734 12.2479 7.25331 11.7063 7.01859C11.1646 6.78386 10.5958 6.6665 10 6.6665C9.40417 6.6665 8.83542 6.78386 8.29375 7.01859C7.75208 7.25331 7.27361 7.58734 6.85833 8.02067ZM8.91667 21.2373L0.25 16.4165V6.80192L5.80208 9.9165C5.74792 10.0971 5.71181 10.2731 5.69375 10.4446C5.67569 10.6162 5.66667 10.8012 5.66667 10.9998C5.66667 11.9929 5.96458 12.8776 6.56042 13.654C7.15625 14.4304 7.94167 14.945 8.91667 15.1978V21.2373ZM10 13.1665C9.40417 13.1665 8.8941 12.9544 8.46979 12.53C8.04549 12.1057 7.83333 11.5957 7.83333 10.9998C7.83333 10.404 8.04549 9.89393 8.46979 9.46963C8.8941 9.04532 9.40417 8.83317 10 8.83317C10.5958 8.83317 11.1059 9.04532 11.5302 9.46963C11.9545 9.89393 12.1667 10.404 12.1667 10.9998C12.1667 11.5957 11.9545 12.1057 11.5302 12.53C11.1059 12.9544 10.5958 13.1665 10 13.1665ZM11.0833 21.2373V15.1978C12.0583 14.945 12.8438 14.4304 13.4396 13.654C14.0354 12.8776 14.3333 11.9929 14.3333 10.9998C14.3333 10.8012 14.3243 10.6162 14.3063 10.4446C14.2882 10.2731 14.2521 10.0971 14.1979 9.9165L19.75 6.80192V16.4165L11.0833 21.2373Z" fill="#ab8eff"/>
</svg>